<mxfile host="app.diagrams.net" modified="2024-07-17T07:23:02.645Z" agent="Mozilla/5.0 (Windows NT 10.0; Win64; x64) AppleWebKit/537.36 (KHTML, like Gecko) Chrome/126.0.0.0 Safari/537.36 Edg/126.0.0.0" version="24.6.4" etag="mHjQNBwWEAWEfbKvOWbX" type="github">
  <diagram name="Page-1" id="RCJK92JgkIpZ5ffQ0cAp">
    <mxGraphModel>
      <root>
        <mxCell id="0" />
        <mxCell id="1" parent="0" />
      </root>
    </mxGraphModel>
  </diagram>
</mxfile>
